<svg width="268" height="53" viewBox="0 0 268 53" fill="none" xmlns="http://www.w3.org/2000/svg">
<g clip-path="url(#clip0_10813_66311)">
<path d="M52.7373 26.3687C52.7373 40.9313 40.9303 52.7373 26.3687 52.7373C11.8071 52.7373 0 40.9313 0 26.3687C0 11.8061 11.8051 0 26.3687 0C40.9323 0 52.7373 11.8061 52.7373 26.3687Z" fill="white"/>
<path d="M38.7351 24.5312C34.5435 21.6823 29.1775 22.8416 26.3571 27.1254C24.0102 30.7045 20.4586 31.1507 19.0905 31.1507C14.6037 31.1507 11.5419 27.9956 10.6322 24.735H10.6292C10.618 24.6995 10.6119 24.6701 10.6028 24.6407C10.5937 24.6052 10.5866 24.5687 10.5754 24.5312C10.2174 23.1671 10.1271 22.5211 10.1271 21.0728C10.1271 13.2748 18.1331 4.58936 29.6542 4.58936C41.4572 4.58936 48.2116 13.575 49.957 18.5688C49.9225 18.4765 49.8941 18.3913 49.8657 18.3031C46.5179 8.53655 37.2554 1.51538 26.3459 1.51538C12.6281 1.51538 1.49951 12.6379 1.49951 26.3668C1.49951 38.6374 10.3482 49.1372 22.6259 49.1372C32.4127 49.1372 38.9927 43.6515 42.0069 36.0847C43.663 31.9458 42.4926 27.0839 38.7351 24.5312Z" fill="#003964"/>
<path d="M50.1109 19.0538C48.6546 14.1817 41.8565 4.59058 29.6549 4.59058C18.1339 4.59058 10.1279 13.277 10.1279 21.074C10.1279 22.5213 10.2192 23.1683 10.5762 24.5324C10.4261 23.935 10.349 23.3417 10.349 22.7596C10.349 14.636 18.4797 9.01037 26.8396 9.01037C38.1588 9.01037 47.3321 18.1836 47.3321 29.4998C47.3321 38.3688 42.2267 46.0513 34.8141 49.7388V49.7449C44.3747 46.2825 51.2012 37.1234 51.2012 26.3691C51.2012 23.8235 50.8604 21.5801 50.1109 19.0558" fill="#ED1A3B"/>
<path d="M64.0557 9.46249H72.9642V11.7748H66.7088V24.1154H73.232V26.4277H64.0557V9.46249ZM80.1203 8.14811H82.6517V29.3485H80.1203V19.1256H77.2968V29.2268H74.8384V8.17245H77.2968V16.8609H80.1203V8.14709V8.14811Z" fill="black"/>
<path d="M85.4268 11.9932V9.72956H90.4165V7.71033H93.2157V9.72956H98.2298V11.9932H85.4268ZM86.376 28.9341V22.4839H89.0291V26.6217H103.463V28.9341H86.376ZM96.745 17.1047C96.745 17.7375 96.6152 18.3257 96.3556 18.8693C96.0959 19.4129 95.747 19.8957 95.3089 20.3176C94.8546 20.7233 94.3313 21.0478 93.739 21.2912C93.1467 21.5346 92.5098 21.6563 91.8283 21.6563C91.1467 21.6563 90.5098 21.5346 89.9175 21.2912C89.3253 21.0478 88.8019 20.7233 88.3476 20.3176C87.9095 19.8957 87.5606 19.4129 87.301 18.8693C87.0413 18.3257 86.9115 17.7375 86.9115 17.1047C86.9115 16.4718 87.0413 15.8795 87.301 15.3278C87.5596 14.7761 87.9095 14.2903 88.3476 13.8674C88.8019 13.4628 89.3253 13.1372 89.9175 12.8938C90.5098 12.6514 91.1467 12.5297 91.8283 12.5297C92.5098 12.5297 93.1467 12.6514 93.739 12.8938C94.3313 13.1372 94.8546 13.4628 95.3089 13.8674C95.747 14.2903 96.0959 14.7761 96.3556 15.3278C96.6152 15.8795 96.745 16.4718 96.745 17.1047ZM94.1893 17.0793C94.1893 16.4302 93.9611 15.8745 93.5077 15.412C93.0544 14.9495 92.5017 14.7183 91.8526 14.7183C91.2035 14.7183 90.6478 14.9495 90.1853 15.412C89.7228 15.8745 89.4916 16.4302 89.4916 17.0793C89.4916 17.7284 89.7228 18.2811 90.1853 18.7355C90.6478 19.1888 91.2035 19.417 91.8526 19.417C92.5017 19.417 93.0534 19.1888 93.5077 18.7355C93.9621 18.2811 94.1893 17.7294 94.1893 17.0793ZM103.025 13.9161H106.067V16.2274H103.025V21.7283H100.396V8.14642H103.025V13.9151V13.9161Z" fill="black"/>
<path d="M108.818 19.6601V8.7556H119.723V19.6601H108.818ZM109.427 28.9347V21.8517H112.056V26.5991H126.805V28.9357H109.426L109.427 28.9347ZM117.143 11.0446H111.423V17.3974H117.143V11.0446ZM123.982 21.729V8.14709H126.611V21.729H123.982Z" fill="black"/>
<path d="M138.634 21.9974V18.9061H130.237V16.5938H149.709V18.9061H141.287V21.9974H148.151V29.3968H145.523V24.3087H131.551V21.9974H138.634ZM148.103 8.58484V14.89H145.474V10.8972H131.746V8.58484H148.103Z" fill="black"/>
<path d="M171.93 17.0313C171.93 17.8923 171.76 18.6996 171.419 19.4541C171.079 20.2077 170.616 20.8699 170.032 21.4379C169.448 22.0058 168.762 22.4561 167.975 22.7878C167.188 23.1204 166.348 23.2867 165.457 23.2867C164.565 23.2867 163.724 23.1204 162.938 22.7878C162.151 22.4561 161.465 22.0058 160.881 21.4379C160.298 20.8689 159.835 20.2077 159.494 19.4541C159.153 18.6996 158.982 17.8923 158.982 17.0313C158.982 16.1702 159.153 15.364 159.494 14.6094C159.835 13.8549 160.298 13.1936 160.881 12.6257C161.465 12.0577 162.151 11.6074 162.938 11.2748C163.724 10.9421 164.564 10.7758 165.457 10.7758C166.349 10.7758 167.188 10.9421 167.975 11.2748C168.762 11.6074 169.448 12.0577 170.032 12.6257C170.616 13.1946 171.079 13.8549 171.419 14.6094C171.76 15.364 171.93 16.1712 171.93 17.0313ZM169.326 17.0313C169.326 16.4968 169.225 15.9846 169.022 15.4978C168.819 15.011 168.547 14.5972 168.206 14.2565C167.848 13.8985 167.435 13.6196 166.964 13.4167C166.493 13.2139 165.99 13.1125 165.456 13.1125C164.921 13.1125 164.417 13.2139 163.947 13.4167C163.476 13.6196 163.062 13.8995 162.705 14.2565C162.364 14.5972 162.093 15.01 161.889 15.4978C161.686 15.9836 161.585 16.4958 161.585 17.0313C161.585 17.5668 161.686 18.0779 161.889 18.5657C162.092 19.0515 162.364 19.4663 162.705 19.8071C163.062 20.1651 163.476 20.444 163.947 20.6468C164.417 20.8497 164.92 20.9511 165.456 20.9511C165.991 20.9511 166.493 20.8497 166.964 20.6468C167.435 20.444 167.848 20.1641 168.206 19.8071C168.547 19.4663 168.819 19.0525 169.022 18.5657C169.225 18.0789 169.326 17.5678 169.326 17.0313ZM176.92 29.3485H174.291V8.14807H176.92V15.7179H179.963V18.3467H176.92V29.3485Z" fill="black"/>
<path d="M183.248 9.24353H200.092V11.5559H197.293V18.2738H200.092V20.5618H192.985V25.4542H201.406V27.7908H181.934V25.4542H190.331V20.5618H183.248V18.2738H186.049V11.5559H183.248V9.24353ZM194.737 11.5559H188.603V18.2738H194.737V11.5559Z" fill="black"/>
<path d="M223.604 25.4535V27.7902H204.131V25.4535H223.604ZM213.867 12.6008L206.809 21.6564L204.763 20.0987L213.867 8.46399L222.971 20.0987L220.926 21.6564L213.867 12.6008Z" fill="black"/>
<path d="M238.405 26.4276H227.111V9.46245H238.161V11.7748H229.715V16.7402H237.383V19.0282H229.715V24.1163H238.405V26.4276ZM242.275 8.14807H244.904V29.3485H242.275V8.14807Z" fill="black"/>
<path d="M248.527 21.8507H268V24.1883H263.691V29.3485H261.087V24.1883H255.441V29.3485H252.837V24.1883H248.528V21.8507H248.527ZM264.592 13.867C264.592 14.6946 264.426 15.4705 264.094 16.1915C263.761 16.9146 263.311 17.5516 262.743 18.1033C262.159 18.655 261.486 19.089 260.723 19.4045C259.96 19.7209 259.14 19.8801 258.264 19.8801C257.389 19.8801 256.568 19.7219 255.805 19.4045C255.042 19.088 254.369 18.655 253.786 18.1033C253.217 17.5516 252.767 16.9146 252.435 16.1915C252.102 15.4705 251.936 14.6946 251.936 13.867C251.936 13.0395 252.102 12.2656 252.435 11.5425C252.767 10.8215 253.217 10.1835 253.786 9.63182C254.369 9.08011 255.042 8.64604 255.805 8.32962C256.568 8.01319 257.388 7.85498 258.264 7.85498C259.141 7.85498 259.96 8.01319 260.723 8.32962C261.486 8.64604 262.159 9.08011 262.743 9.63182C263.311 10.1835 263.761 10.8215 264.094 11.5425C264.426 12.2656 264.592 13.0405 264.592 13.867ZM261.989 13.867C261.989 13.365 261.886 12.8904 261.684 12.4441C261.481 11.9979 261.217 11.6044 260.893 11.2636C260.552 10.9229 260.154 10.6541 259.701 10.4604C259.246 10.2657 258.767 10.1683 258.264 10.1683C257.762 10.1683 257.282 10.2657 256.828 10.4604C256.374 10.6541 255.977 10.9229 255.635 11.2636C255.311 11.6044 255.046 11.9979 254.845 12.4441C254.642 12.8904 254.54 13.365 254.54 13.867C254.54 14.3691 254.642 14.8457 254.845 15.2909C255.046 15.7372 255.311 16.1307 255.635 16.4714C255.977 16.8122 256.374 17.08 256.828 17.2747C257.282 17.4694 257.761 17.5668 258.264 17.5668C258.768 17.5668 259.246 17.4694 259.701 17.2747C260.154 17.08 260.552 16.8122 260.893 16.4714C261.217 16.1307 261.481 15.7372 261.684 15.2909C261.886 14.8457 261.989 14.3701 261.989 13.867Z" fill="black"/>
<path d="M67.1286 40.3719L69.1164 43.0991H67.7574L65.9015 40.4531H65.2118V43.0991H64.0557V36.1925H66.2869C67.1185 36.1925 67.7594 36.3862 68.2087 36.7757C68.658 37.1641 68.8832 37.6803 68.8832 38.3213C68.8832 38.9622 68.66 39.4774 68.2138 39.8638C67.9227 40.1133 67.5617 40.2837 67.1286 40.3719ZM67.7169 38.3233C67.7169 37.9379 67.585 37.6479 67.3213 37.4511C67.0576 37.2564 66.6276 37.158 66.0333 37.158H65.2118V39.4906H66.0333C66.6276 39.4906 67.0576 39.3922 67.3213 39.1965C67.585 39.0008 67.7169 38.7097 67.7169 38.3243V38.3233Z" fill="black"/>
<path d="M70.7409 41.1131C70.8078 41.4173 70.9508 41.6678 71.1669 41.8636C71.4843 42.1536 71.9042 42.2997 72.4244 42.2997C72.9721 42.2997 73.4853 42.0968 73.966 41.6911L74.3007 42.5218C73.7672 42.9893 73.1313 43.2215 72.394 43.2215C71.5553 43.2215 70.8738 42.9832 70.3504 42.5065C69.8261 42.0299 69.5645 41.4062 69.5645 40.6354C69.5645 39.8707 69.7977 39.2439 70.2642 38.7541C70.7308 38.2642 71.3393 38.0188 72.0898 38.0188C72.8332 38.0188 73.4406 38.2622 73.9102 38.749C74.3798 39.2358 74.6151 39.8413 74.6151 40.5644C74.6151 40.7601 74.5978 40.9437 74.5644 41.112L70.7409 41.1131ZM70.7206 40.2297H73.4792C73.465 39.9062 73.3301 39.61 73.0735 39.3423C72.8169 39.0756 72.4883 38.9417 72.0898 38.9417C71.6841 38.9417 71.3494 39.0877 71.0857 39.3778C70.89 39.5948 70.7683 39.8778 70.7206 40.2297Z" fill="black"/>
<path d="M78.2945 43.2226C77.686 43.2226 77.1789 42.9863 76.7732 42.5127V45.0279H75.6475V38.1416H76.7326V38.7704C77.1586 38.2704 77.6789 38.0199 78.2945 38.0199C79.0176 38.0199 79.6048 38.2785 80.0541 38.7957C80.5034 39.314 80.7285 39.9235 80.7285 40.6274C80.7285 41.3241 80.5034 41.9296 80.0541 42.4478C79.6048 42.965 79.0186 43.2226 78.2945 43.2226ZM76.7833 40.9407C76.8239 41.3129 76.9629 41.6243 77.1992 41.8738C77.4628 42.1507 77.7904 42.2896 78.1829 42.2896C78.615 42.2896 78.9588 42.1324 79.2123 41.818C79.4659 41.5026 79.5926 41.106 79.5926 40.6263C79.5926 40.1466 79.4659 39.747 79.2123 39.4286C78.9588 39.1101 78.616 38.9519 78.1829 38.9519C77.7904 38.9519 77.4628 39.0909 77.1992 39.3677C76.9629 39.6172 76.8239 39.9296 76.7833 40.3008C76.7631 40.5107 76.7631 40.7247 76.7833 40.9407Z" fill="black"/>
<path d="M85.0481 40.6366V38.1417H86.1739V43.1011H85.0887V42.4429C84.9538 42.6852 84.7713 42.8719 84.5411 43.0007C84.2703 43.1487 83.9904 43.2238 83.6993 43.2238C83.1182 43.2238 82.6496 43.025 82.2946 42.6254C81.9397 42.2258 81.7622 41.6924 81.7622 41.023V38.1427H82.8879V40.739C82.8879 41.2674 82.9741 41.6569 83.1466 41.9104C83.319 42.164 83.5847 42.2907 83.9427 42.2907C84.1252 42.2907 84.3037 42.2299 84.4802 42.1082C84.6567 41.9865 84.7916 41.8212 84.8859 41.6112C84.9944 41.3678 85.0481 41.0413 85.0481 40.6366Z" fill="black"/>
<path d="M90.2012 38.0198C90.9243 38.0198 91.5115 38.2784 91.9608 38.7956C92.4101 39.3139 92.6352 39.9234 92.6352 40.6272C92.6352 41.324 92.4101 41.9294 91.9608 42.4477C91.5115 42.9649 90.9253 43.2235 90.2012 43.2235C89.5795 43.2235 89.0582 42.9741 88.6394 42.473V43.1018H87.5542V35.7389H88.6799V38.7307C89.1059 38.2571 89.613 38.0198 90.2012 38.0198ZM88.6891 40.9406C88.7296 41.3128 88.8686 41.6242 89.1049 41.8737C89.3686 42.1505 89.6961 42.2895 90.0886 42.2895C90.5207 42.2895 90.8645 42.1323 91.118 41.8179C91.3716 41.5025 91.4983 41.1059 91.4983 40.6262C91.4983 40.1465 91.3716 39.7469 91.118 39.4285C90.8645 39.11 90.5217 38.9518 90.0886 38.9518C89.6961 38.9518 89.3686 39.0908 89.1049 39.3676C88.8686 39.6171 88.7296 39.9295 88.6891 40.3007C88.6688 40.5106 88.6688 40.7246 88.6891 40.9406Z" fill="black"/>
<path d="M93.6689 43.1009V35.7379H94.7947V43.1009H93.6689Z" fill="black"/>
<path d="M97.5139 36.5897C97.5139 36.7793 97.4429 36.9447 97.3009 37.0866C97.1589 37.2286 96.9895 37.2996 96.7938 37.2996C96.5981 37.2996 96.4287 37.2286 96.2867 37.0866C96.1447 36.9436 96.0737 36.7783 96.0737 36.5897C96.0737 36.394 96.1447 36.2246 96.2867 36.0826C96.4287 35.9406 96.5981 35.8696 96.7938 35.8696C96.9895 35.8696 97.1589 35.9406 97.3009 36.0826C97.4429 36.2246 97.5139 36.394 97.5139 36.5897ZM96.236 43.1007V38.1414H97.3719V43.1007H96.236Z" fill="black"/>
<path d="M98.4766 40.6263C98.4766 39.9093 98.7453 39.2957 99.2828 38.7856C99.8203 38.2755 100.502 38.0199 101.326 38.0199C101.975 38.0199 102.584 38.2258 103.152 38.6385L102.787 39.5199C102.294 39.1416 101.806 38.9519 101.326 38.9519C100.819 38.9519 100.407 39.1122 100.089 39.4337C99.7717 39.7552 99.6124 40.1527 99.6124 40.6263C99.6124 41.0929 99.7717 41.4864 100.089 41.8079C100.407 42.1283 100.819 42.2896 101.326 42.2896C101.813 42.2896 102.307 42.0999 102.807 41.7217L103.172 42.603C102.625 43.0157 102.009 43.2216 101.326 43.2216C100.502 43.2216 99.8203 42.9661 99.2828 42.4559C98.7453 41.9458 98.4766 41.3363 98.4766 40.6263Z" fill="black"/>
<path d="M109.401 43.2226C108.678 43.2226 108.058 42.9731 107.545 42.4721C107.031 41.9721 106.774 41.3565 106.774 40.6273C106.774 39.89 107.031 39.2714 107.545 38.7714C108.058 38.2714 108.678 38.0209 109.401 38.0209C110.131 38.0209 110.752 38.2714 111.262 38.7714C111.772 39.2714 112.027 39.891 112.027 40.6273C112.027 41.3575 111.772 41.9721 111.262 42.4721C110.752 42.9731 110.131 43.2226 109.401 43.2226ZM109.401 42.2896C109.812 42.2896 110.164 42.1324 110.455 41.818C110.745 41.5026 110.891 41.106 110.891 40.6263C110.891 40.1466 110.745 39.747 110.455 39.4286C110.164 39.1111 109.812 38.9519 109.401 38.9519C108.995 38.9519 108.645 39.1101 108.351 39.4286C108.057 39.747 107.91 40.1456 107.91 40.6263C107.91 41.107 108.057 41.5026 108.351 41.818C108.645 42.1324 108.995 42.2896 109.401 42.2896Z" fill="black"/>
<path d="M113.335 37.1578C113.335 36.6902 113.465 36.3373 113.725 36.0969C113.985 35.8576 114.382 35.7379 114.917 35.7379H115.465V36.6405H115.13C114.92 36.6405 114.758 36.6852 114.643 36.7724C114.529 36.8606 114.471 37.0259 114.471 37.2693V38.1415H115.465V39.0441H114.471V43.1009H113.335V39.0441H112.483V38.1415H113.335V37.1578Z" fill="black"/>
<path d="M119.501 43.1009V35.7379H120.627V40.3524L122.594 38.1415H123.953L121.834 40.5147L124.095 43.1009H122.706L120.627 40.6973V43.1009H119.501Z" fill="black"/>
<path d="M126.853 43.2226C126.13 43.2226 125.511 42.9731 124.998 42.4721C124.484 41.9721 124.227 41.3565 124.227 40.6273C124.227 39.89 124.484 39.2714 124.998 38.7714C125.511 38.2714 126.13 38.0209 126.853 38.0209C127.584 38.0209 128.204 38.2714 128.715 38.7714C129.226 39.2714 129.479 39.891 129.479 40.6273C129.479 41.3575 129.226 41.9721 128.715 42.4721C128.204 42.9731 127.584 43.2226 126.853 43.2226ZM126.853 42.2896C127.267 42.2896 127.617 42.1324 127.909 41.818C128.2 41.5026 128.345 41.106 128.345 40.6263C128.345 40.1466 128.2 39.747 127.909 39.4286C127.617 39.1101 127.267 38.9519 126.853 38.9519C126.449 38.9519 126.098 39.1101 125.804 39.4286C125.51 39.747 125.363 40.1456 125.363 40.6263C125.363 41.107 125.51 41.5026 125.804 41.818C126.098 42.1324 126.449 42.2896 126.853 42.2896Z" fill="black"/>
<path d="M130.524 43.1009V38.1416H131.59V38.8809C131.751 38.6385 131.951 38.4489 132.188 38.313C132.471 38.1436 132.806 38.0594 133.191 38.0594H133.272V39.0635H133.151C132.684 39.0635 132.313 39.2055 132.035 39.4894C131.778 39.7663 131.65 40.1994 131.65 40.7866V43.0989H130.524V43.1009Z" fill="black"/>
<path d="M134.876 41.1131C134.943 41.4173 135.086 41.6678 135.302 41.8636C135.619 42.1536 136.039 42.2997 136.559 42.2997C137.107 42.2997 137.621 42.0968 138.101 41.6911L138.435 42.5218C137.902 42.9893 137.266 43.2215 136.529 43.2215C135.691 43.2215 135.01 42.9832 134.485 42.5065C133.961 42.0299 133.699 41.4062 133.699 40.6354C133.699 39.8707 133.932 39.2439 134.399 38.7541C134.866 38.2642 135.474 38.0188 136.225 38.0188C136.968 38.0188 137.574 38.2622 138.045 38.749C138.515 39.2358 138.75 39.8413 138.75 40.5644C138.75 40.7601 138.733 40.9437 138.698 41.112H134.875L134.876 41.1131ZM134.856 40.2297H137.615C137.601 39.9062 137.467 39.61 137.209 39.3423C136.953 39.0756 136.625 38.9417 136.226 38.9417C135.82 38.9417 135.485 39.0877 135.221 39.3778C135.026 39.5948 134.904 39.8778 134.857 40.2297H134.856Z" fill="black"/>
<path d="M141.925 39.8951H143.101C143.101 39.5787 142.974 39.3373 142.721 39.175C142.467 39.0128 142.104 38.9327 141.631 38.9327H141.6C141.155 38.9327 140.677 39.0371 140.17 39.2471L139.887 38.3647C140.407 38.1416 140.982 38.027 141.611 38.0199H141.632C142.463 38.0199 143.102 38.1801 143.548 38.5016C143.995 38.8231 144.218 39.3312 144.218 40.028V43.1009H143.143V42.5533C142.933 42.7632 142.674 42.9265 142.366 43.0452C142.059 43.1628 141.746 43.2226 141.428 43.2226C140.84 43.2226 140.361 43.0654 139.993 42.751C139.625 42.4356 139.44 42.0502 139.44 41.5888C139.44 41.0817 139.67 40.6629 140.13 40.3322C140.549 40.0412 141.147 39.8951 141.925 39.8951ZM141.62 42.3302C141.91 42.3302 142.197 42.2592 142.482 42.1172C142.767 41.9752 142.972 41.8089 143.101 41.6202V40.7785H142.097C141.529 40.7785 141.134 40.8525 140.91 41.0016C140.687 41.1639 140.576 41.3606 140.576 41.5898C140.576 41.8068 140.669 41.9843 140.855 42.1223C141.04 42.2612 141.296 42.3302 141.62 42.3302Z" fill="black"/>
<path d="M149.38 41.1131C149.446 41.4173 149.59 41.6678 149.806 41.8636C150.123 42.1536 150.543 42.2997 151.063 42.2997C151.611 42.2997 152.125 42.0968 152.605 41.6911L152.939 42.5218C152.406 42.9893 151.77 43.2215 151.033 43.2215C150.195 43.2215 149.513 42.9832 148.989 42.5065C148.465 42.0299 148.203 41.4062 148.203 40.6354C148.203 39.8707 148.436 39.2439 148.903 38.7541C149.369 38.2642 149.978 38.0188 150.728 38.0188C151.472 38.0188 152.078 38.2622 152.549 38.749C153.018 39.2358 153.254 39.8413 153.254 40.5644C153.254 40.7601 153.236 40.9437 153.202 41.112H149.379L149.38 41.1131ZM149.36 40.2297H152.119C152.105 39.9062 151.971 39.61 151.713 39.3423C151.457 39.0756 151.129 38.9417 150.729 38.9417C150.324 38.9417 149.989 39.0877 149.725 39.3778C149.53 39.5948 149.408 39.8778 149.361 40.2297H149.36Z" fill="black"/>
<path d="M154.389 39.0935H158.507V40.1077H154.389V39.0935Z" fill="black"/>
<path d="M163.281 36.1946L165.695 43.1011H164.52L163.82 41.0728H161.173L160.474 43.1011H159.288L161.701 36.1946H163.283H163.281ZM161.496 40.1083H163.494L162.502 37.2088L161.497 40.1083H161.496Z" fill="black"/>
<path d="M169.024 43.2226C168.415 43.2226 167.908 42.9863 167.503 42.5127V45.0279H166.377V38.1416H167.462V38.7704C167.888 38.2704 168.409 38.0199 169.024 38.0199C169.747 38.0199 170.334 38.2785 170.784 38.7957C171.233 39.314 171.458 39.9235 171.458 40.6274C171.458 41.3241 171.233 41.9296 170.784 42.4478C170.334 42.965 169.747 43.2226 169.024 43.2226ZM167.513 40.9407C167.553 41.3129 167.692 41.6243 167.929 41.8738C168.192 42.1507 168.52 42.2896 168.912 42.2896C169.345 42.2896 169.689 42.1324 169.943 41.818C170.196 41.5026 170.323 41.106 170.323 40.6263C170.323 40.1466 170.196 39.747 169.943 39.4286C169.689 39.1101 169.345 38.9519 168.912 38.9519C168.52 38.9519 168.192 39.0909 167.929 39.3677C167.692 39.6172 167.553 39.9296 167.513 40.3008C167.493 40.5107 167.493 40.7247 167.513 40.9407Z" fill="black"/>
<path d="M174.772 43.2226C174.049 43.2226 173.43 42.9731 172.916 42.4721C172.403 41.9721 172.145 41.3565 172.145 40.6273C172.145 39.89 172.403 39.2714 172.916 38.7714C173.43 38.2714 174.049 38.0209 174.772 38.0209C175.503 38.0209 176.123 38.2714 176.633 38.7714C177.144 39.2714 177.398 39.891 177.398 40.6273C177.398 41.3575 177.144 41.9721 176.633 42.4721C176.123 42.9731 175.503 43.2226 174.772 43.2226ZM174.772 42.2896C175.185 42.2896 175.536 42.1324 175.826 41.818C176.118 41.5026 176.264 41.106 176.264 40.6263C176.264 40.1466 176.118 39.747 175.826 39.4286C175.536 39.1111 175.185 38.9519 174.772 38.9519C174.367 38.9519 174.016 39.1101 173.722 39.4286C173.429 39.746 173.281 40.1456 173.281 40.6263C173.281 41.107 173.429 41.5026 173.722 41.818C174.016 42.1324 174.367 42.2896 174.772 42.2896Z" fill="black"/>
<path d="M177.988 42.177L178.697 41.457C178.893 41.7277 179.11 41.9377 179.347 42.0857C179.578 42.2287 179.824 42.2987 180.087 42.2987C180.344 42.2987 180.558 42.246 180.731 42.1415C180.904 42.0371 180.99 41.9001 180.99 41.7318C180.99 41.5624 180.907 41.4286 180.742 41.3302C180.576 41.2318 180.375 41.1426 180.137 41.0614C179.867 40.9732 179.59 40.8748 179.307 40.7673C178.927 40.6314 178.65 40.4539 178.47 40.2349C178.291 40.0158 178.201 39.7673 178.201 39.4905C178.201 39.0848 178.392 38.7379 178.773 38.4509C179.155 38.1639 179.606 38.0199 180.127 38.0199C180.682 38.0199 181.134 38.1517 181.486 38.4154C181.67 38.5513 181.811 38.7237 181.912 38.9337L181.223 39.602C181.127 39.4468 181.02 39.3191 180.898 39.2166C180.675 39.027 180.402 38.9337 180.077 38.9337C179.881 38.9337 179.711 38.9803 179.569 39.0757C179.427 39.171 179.356 39.2856 179.356 39.4205C179.356 39.5625 179.436 39.6832 179.595 39.7805C179.753 39.8789 179.988 39.9742 180.299 40.0685C180.413 40.103 180.542 40.1436 180.684 40.1902C181.165 40.3454 181.53 40.5493 181.779 40.7998C182.03 41.0493 182.155 41.3505 182.155 41.7024C182.155 42.1152 181.956 42.4721 181.556 42.7723C181.157 43.0736 180.654 43.2237 180.045 43.2237C179.524 43.2237 179.068 43.102 178.676 42.8585C178.412 42.7034 178.182 42.4772 177.986 42.179L177.988 42.177Z" fill="black"/>
<path d="M184.57 36.5392V38.1416H185.645V39.0442H184.57V41.5695C184.57 41.8129 184.628 41.9782 184.742 42.0665C184.857 42.1537 185.019 42.1983 185.228 42.1983H185.644V43.1009H184.964C184.431 43.1009 184.041 42.9813 183.798 42.7419C183.556 42.5015 183.434 42.1486 183.434 41.6821V39.0442H182.582V38.1416H183.434V36.5392H184.57Z" fill="black"/>
<path d="M187.978 36.5897C187.978 36.7793 187.908 36.9447 187.765 37.0866C187.623 37.2286 187.453 37.2996 187.258 37.2996C187.062 37.2996 186.894 37.2286 186.751 37.0866C186.609 36.9436 186.538 36.7783 186.538 36.5897C186.538 36.394 186.609 36.2246 186.751 36.0826C186.894 35.9406 187.062 35.8696 187.258 35.8696C187.453 35.8696 187.623 35.9406 187.765 36.0826C187.908 36.2246 187.978 36.394 187.978 36.5897ZM186.7 43.1007V38.1414H187.836V43.1007H186.7Z" fill="black"/>
<path d="M189.285 43.1009V35.7379H190.411V43.1009H189.285Z" fill="black"/>
<path d="M191.821 43.1009V35.7379H192.947V43.1009H191.821Z" fill="black"/>
<path d="M195.188 41.1131C195.255 41.4173 195.398 41.6678 195.614 41.8636C195.931 42.1536 196.351 42.2997 196.871 42.2997C197.419 42.2997 197.933 42.0968 198.413 41.6911L198.747 42.5218C198.214 42.9893 197.578 43.2215 196.841 43.2215C196.003 43.2215 195.322 42.9832 194.797 42.5065C194.273 42.0299 194.011 41.4062 194.011 40.6354C194.011 39.8707 194.244 39.2439 194.711 38.7541C195.178 38.2642 195.786 38.0188 196.537 38.0188C197.28 38.0188 197.886 38.2622 198.357 38.749C198.827 39.2358 199.062 39.8413 199.062 40.5644C199.062 40.7601 199.045 40.9437 199.01 41.112H195.187L195.188 41.1131ZM195.168 40.2297H197.927C197.913 39.9062 197.779 39.61 197.521 39.3423C197.265 39.0756 196.937 38.9417 196.538 38.9417C196.132 38.9417 195.797 39.0877 195.534 39.3778C195.338 39.5948 195.215 39.8778 195.168 40.2297Z" fill="black"/>
<path d="M202.713 41.7014L203.474 40.9306C203.683 41.3637 203.944 41.6841 204.255 41.8941C204.586 42.1172 204.925 42.2287 205.27 42.2287C205.635 42.2287 205.945 42.1334 206.203 41.9448C206.459 41.7551 206.588 41.5077 206.588 41.2044C206.588 40.9336 206.458 40.7146 206.198 40.5462C205.937 40.3769 205.655 40.2349 205.351 40.1203C205.047 40.0057 204.729 39.884 204.397 39.7552C203.87 39.5594 203.493 39.3079 203.267 38.9996C203.04 38.6923 202.927 38.3657 202.927 38.0209C202.927 37.4875 203.154 37.028 203.607 36.6467C204.06 36.2654 204.618 36.0747 205.28 36.0747C205.977 36.0747 206.54 36.2542 206.973 36.6122C207.197 36.7877 207.352 36.9804 207.44 37.1893L206.75 37.9205C206.688 37.7988 206.578 37.6629 206.416 37.5148C206.084 37.2106 205.685 37.0585 205.219 37.0585C204.928 37.0585 204.672 37.1396 204.453 37.3019C204.233 37.4641 204.124 37.6802 204.124 37.9509C204.124 38.3637 204.573 38.7258 205.472 39.0361C205.635 39.0909 205.803 39.1507 205.98 39.2187C206.581 39.4489 207.032 39.7207 207.333 40.0361C207.634 40.3505 207.784 40.7369 207.784 41.1973C207.784 41.745 207.552 42.2186 207.085 42.6172C206.619 43.0218 206.02 43.2257 205.289 43.2257C204.613 43.2257 204.055 43.0736 203.617 42.7693C203.191 42.4722 202.889 42.1172 202.713 41.7044V41.7014Z" fill="black"/>
<path d="M209.721 41.1131C209.788 41.4173 209.931 41.6678 210.147 41.8636C210.464 42.1536 210.884 42.2997 211.404 42.2997C211.952 42.2997 212.466 42.0968 212.946 41.6911L213.281 42.5218C212.747 42.9893 212.111 43.2215 211.374 43.2215C210.536 43.2215 209.855 42.9832 209.33 42.5065C208.806 42.0299 208.544 41.4062 208.544 40.6354C208.544 39.8707 208.778 39.2439 209.244 38.7541C209.711 38.2642 210.319 38.0188 211.07 38.0188C211.813 38.0188 212.42 38.2622 212.89 38.749C213.36 39.2358 213.595 39.8413 213.595 40.5644C213.595 40.7601 213.578 40.9437 213.543 41.112H209.72L209.721 41.1131ZM209.702 40.2297H212.46C212.446 39.9062 212.312 39.61 212.055 39.3423C211.798 39.0756 211.47 38.9417 211.071 38.9417C210.665 38.9417 210.33 39.0877 210.067 39.3778C209.871 39.5948 209.748 39.8778 209.702 40.2297Z" fill="black"/>
<path d="M214.63 43.1009V38.1416H215.696V38.8809C215.857 38.6385 216.057 38.4489 216.294 38.313C216.577 38.1436 216.912 38.0594 217.297 38.0594H217.378V39.0635H217.257C216.79 39.0635 216.419 39.2055 216.141 39.4894C215.884 39.7663 215.756 40.1994 215.756 40.7866V43.0989H214.63V43.1009Z" fill="black"/>
<path d="M220.35 42.1579L221.679 38.1417H222.845L221.121 43.1011H219.579L217.854 38.1417H219.021L220.35 42.1579Z" fill="black"/>
<path d="M224.883 36.5897C224.883 36.7793 224.813 36.9447 224.67 37.0866C224.528 37.2286 224.358 37.2996 224.162 37.2996C223.967 37.2996 223.798 37.2286 223.655 37.0866C223.513 36.9436 223.442 36.7783 223.442 36.5897C223.442 36.394 223.513 36.2246 223.655 36.0826C223.798 35.9406 223.967 35.8696 224.162 35.8696C224.358 35.8696 224.528 35.9406 224.67 36.0826C224.813 36.2246 224.883 36.394 224.883 36.5897ZM223.606 43.1007V38.1414H224.742V43.1007H223.606Z" fill="black"/>
<path d="M225.847 40.6263C225.847 39.9093 226.117 39.2957 226.653 38.7856C227.191 38.2755 227.872 38.0199 228.698 38.0199C229.347 38.0199 229.955 38.2258 230.524 38.6385L230.158 39.5199C229.666 39.1416 229.178 38.9519 228.699 38.9519C228.192 38.9519 227.779 39.1122 227.461 39.4337C227.143 39.7552 226.984 40.1527 226.984 40.6263C226.984 41.0929 227.142 41.4864 227.461 41.8079C227.778 42.1283 228.192 42.2896 228.699 42.2896C229.185 42.2896 229.679 42.0999 230.18 41.7217L230.544 42.603C229.996 43.0157 229.382 43.2216 228.699 43.2216C227.875 43.2216 227.193 42.9661 226.654 42.4559C226.118 41.9458 225.848 41.3353 225.848 40.6253L225.847 40.6263Z" fill="black"/>
<path d="M232.459 41.1131C232.526 41.4173 232.669 41.6678 232.885 41.8636C233.202 42.1536 233.622 42.2997 234.142 42.2997C234.69 42.2997 235.204 42.0968 235.684 41.6911L236.018 42.5218C235.485 42.9893 234.849 43.2215 234.112 43.2215C233.274 43.2215 232.593 42.9832 232.068 42.5065C231.544 42.0299 231.282 41.4062 231.282 40.6354C231.282 39.8707 231.515 39.2439 231.982 38.7541C232.449 38.2642 233.057 38.0188 233.808 38.0188C234.551 38.0188 235.157 38.2622 235.628 38.749C236.098 39.2358 236.333 39.8413 236.333 40.5644C236.333 40.7601 236.316 40.9437 236.281 41.112H232.458L232.459 41.1131ZM232.439 40.2297H235.198C235.184 39.9062 235.05 39.61 234.792 39.3423C234.536 39.0756 234.208 38.9417 233.809 38.9417C233.403 38.9417 233.068 39.0877 232.805 39.3778C232.609 39.5948 232.486 39.8778 232.439 40.2297Z" fill="black"/>
</g>
<defs>
<clipPath id="clip0_10813_66311">
<rect width="268" height="52.7373" fill="white"/>
</clipPath>
</defs>
</svg>
