<svg width="24" height="24" viewBox="0 0 24 24" fill="none" xmlns="http://www.w3.org/2000/svg">
<path d="M5.85779 18.668C5.00689 18.668 4.58144 18.668 4.34692 18.4778C4.14261 18.3121 4.01618 18.0589 4.00091 17.7848C3.98338 17.4701 4.21938 17.0907 4.69137 16.3318L10.8336 6.45612C11.2236 5.82906 11.4186 5.51553 11.6644 5.40627C11.8793 5.31076 12.1207 5.31076 12.3356 5.40627C12.5814 5.51553 12.7764 5.82906 13.1664 6.45612L19.3086 16.3318C19.7806 17.0907 20.0166 17.4701 19.9991 17.7848C19.9838 18.0589 19.8574 18.3121 19.6531 18.4778C19.4186 18.668 18.9931 18.668 18.1422 18.668L5.85779 18.668Z" fill="#FFC36A"/>
</svg>
