<svg width="32" height="32" viewBox="0 0 32 32" fill="none" xmlns="http://www.w3.org/2000/svg">
<path d="M16 18.666C11.4482 18.666 7.40025 21.047 4.82314 24.742C4.26848 25.5372 3.99114 25.9348 4.00022 26.4722C4.00722 26.8874 4.24788 27.4112 4.54942 27.6675C4.93972 27.9993 5.48059 27.9993 6.56233 27.9993H25.4377C26.5194 27.9993 27.0603 27.9993 27.4506 27.6675C27.7521 27.4112 27.9928 26.8874 27.9998 26.4722C28.0089 25.9348 27.7315 25.5372 27.1769 24.742C24.5997 21.047 20.5518 18.666 16 18.666Z" stroke="#171B22" stroke-width="2" stroke-linecap="round" stroke-linejoin="round"/>
<path d="M16.0003 14.6667C18.9458 14.6667 21.3337 12.2789 21.3337 9.33333C21.3337 6.38781 18.9458 4 16.0003 4C13.0548 4 10.667 6.38781 10.667 9.33333C10.667 12.2789 13.0548 14.6667 16.0003 14.6667Z" stroke="#171B22" stroke-width="2" stroke-linecap="round" stroke-linejoin="round"/>
</svg>
