<svg width="32" height="32" viewBox="0 0 32 32" fill="none" xmlns="http://www.w3.org/2000/svg">
<path d="M18.5355 5.20693C18.5355 6.61023 17.4001 7.74783 15.9997 7.74783C14.5992 7.74783 13.4639 6.61023 13.4639 5.20693C13.4639 3.80361 14.5992 2.66602 15.9997 2.66602C17.4001 2.66602 18.5355 3.80361 18.5355 5.20693Z" stroke="#171B22" stroke-width="2" stroke-linecap="round" stroke-linejoin="round"/>
<path d="M16 8.59375L16 11.5569" stroke="#171B22" stroke-width="2" stroke-linecap="round" stroke-linejoin="round"/>
<path d="M19.8046 23.3965C19.8046 23.3965 18.6092 24.6669 16.0009 24.6669C13.3927 24.6669 12.1973 23.3965 12.1973 23.3965" stroke="#171B22" stroke-width="2" stroke-linecap="round" stroke-linejoin="round"/>
<path d="M11.5547 19.7073C10.7365 19.7073 10.0732 19.044 10.0732 18.2257C10.0732 17.4075 10.7365 16.7441 11.5547 16.7441" fill="#171B22"/>
<path d="M11.5547 19.7073C12.3729 19.7073 13.0361 19.044 13.0361 18.2257C13.0361 17.4075 12.3729 16.7441 11.5547 16.7441" fill="#171B22"/>
<path d="M20.4443 19.7073C19.6262 19.7073 18.9629 19.044 18.9629 18.2257C18.9629 17.4075 19.6262 16.7441 20.4443 16.7441" fill="#171B22"/>
<path d="M20.4443 19.7073C21.2625 19.7073 21.9258 19.044 21.9258 18.2257C21.9258 17.4075 21.2625 16.7441 20.4443 16.7441" fill="#171B22"/>
<path d="M4.14746 24.887V15.9975C4.14746 13.5427 6.07714 11.5527 8.45752 11.5527H23.5427C25.9232 11.5527 27.8528 13.5427 27.8528 15.9975V24.887C27.8528 27.3418 25.9232 29.3317 23.5427 29.3317H8.45752C6.07714 29.3317 4.14746 27.3418 4.14746 24.887Z" stroke="#171B22" stroke-width="2" stroke-linecap="round" stroke-linejoin="round"/>
</svg>
