<svg width="32" height="32" viewBox="0 0 32 32" fill="none" xmlns="http://www.w3.org/2000/svg">
<path d="M11.2002 15.0373C11.2002 13.6931 11.2002 13.0211 11.4618 12.5077C11.6919 12.0561 12.059 11.6889 12.5106 11.4589C13.024 11.1973 13.6961 11.1973 15.0402 11.1973H24.1602C25.5043 11.1973 26.1764 11.1973 26.6898 11.4589C27.1414 11.6889 27.5085 12.0561 27.7386 12.5077C28.0002 13.0211 28.0002 13.6931 28.0002 15.0373V24.1573C28.0002 25.5014 28.0002 26.1735 27.7386 26.6868C27.5085 27.1384 27.1414 27.5056 26.6898 27.7357C26.1764 27.9973 25.5043 27.9973 24.1602 27.9973H15.0402C13.6961 27.9973 13.024 27.9973 12.5106 27.7357C12.059 27.5056 11.6919 27.1384 11.4618 26.6868C11.2002 26.1735 11.2002 25.5014 11.2002 24.1573V15.0373Z" stroke="#171B22" stroke-width="2" stroke-linecap="round" stroke-linejoin="round"/>
<path d="M20.8 7.84C20.8 6.49587 20.8 5.82381 20.5384 5.31042C20.3083 4.85883 19.9412 4.49168 19.4896 4.26158C18.9762 4 18.3041 4 16.96 4H7.84C6.49587 4 5.82381 4 5.31042 4.26158C4.85883 4.49168 4.49168 4.85883 4.26158 5.31042C4 5.82381 4 6.49587 4 7.84V16.96C4 18.3041 4 18.9762 4.26158 19.4896C4.49168 19.9412 4.85883 20.3083 5.31042 20.5384C5.82381 20.8 6.49587 20.8 7.84 20.8" stroke="#171B22" stroke-width="2" stroke-linecap="round" stroke-linejoin="round"/>
</svg>
