<svg width="24" height="24" viewBox="0 0 24 24" fill="none" xmlns="http://www.w3.org/2000/svg">
<path fill-rule="evenodd" clip-rule="evenodd" d="M21.6006 16.0104L14.6236 4.43963C14.0503 3.54272 13.0592 3 11.9947 3C10.9302 3 9.93915 3.54272 9.36581 4.43963L2.38879 16.0104C1.88716 16.8466 1.86982 17.8869 2.34331 18.7393C2.89089 19.6992 3.91266 20.29 5.01768 20.2858H18.9717C20.0692 20.2975 21.0892 19.7215 21.6461 18.7757C22.1338 17.914 22.1164 16.8557 21.6006 16.0104Z" fill="#E09E00"/>
<path fill-rule="evenodd" clip-rule="evenodd" d="M12 13.1C11.5858 13.1 11.25 12.7642 11.25 12.35L11.25 8.75C11.25 8.33579 11.5858 8 12 8C12.4142 8 12.75 8.33579 12.75 8.75L12.75 12.35C12.75 12.7642 12.4142 13.1 12 13.1Z" fill="white"/>
<path d="M13 15.3496C13 15.9019 12.5523 16.3496 12 16.3496C11.4477 16.3496 11 15.9019 11 15.3496C11 14.7973 11.4477 14.3496 12 14.3496C12.5523 14.3496 13 14.7973 13 15.3496Z" fill="white"/>
<path fill-rule="evenodd" clip-rule="evenodd" d="M12 16.3496C12.5523 16.3496 13 15.9019 13 15.3496C13 14.7973 12.5523 14.3496 12 14.3496C11.4477 14.3496 11 14.7973 11 15.3496C11 15.9019 11.4477 16.3496 12 16.3496Z" fill="white"/>
</svg>
